<?xml version="1.0" encoding="UTF-8" standalone="no"?>
<!-- Generator: Adobe Illustrator 16.0.0, SVG Export Plug-In . SVG Version: 6.00 Build 0)  -->

<svg
   xmlns:dc="http://purl.org/dc/elements/1.1/"
   xmlns:cc="http://creativecommons.org/ns#"
   xmlns:rdf="http://www.w3.org/1999/02/22-rdf-syntax-ns#"
   xmlns:svg="http://www.w3.org/2000/svg"
   xmlns="http://www.w3.org/2000/svg"
   xmlns:sodipodi="http://sodipodi.sourceforge.net/DTD/sodipodi-0.dtd"
   xmlns:inkscape="http://www.inkscape.org/namespaces/inkscape"
   version="1.1"
   id="Capa_1"
   x="0px"
   y="0px"
   width="24"
   height="24"
   viewBox="0 0 24 24"
   xml:space="preserve"
   sodipodi:docname="rss.svg"
   inkscape:version="0.92.5 (2060ec1f9f, 2020-04-08)"><metadata
   id="metadata941"><rdf:RDF><cc:Work
       rdf:about=""><dc:format>image/svg+xml</dc:format><dc:type
         rdf:resource="http://purl.org/dc/dcmitype/StillImage" /><dc:title></dc:title></cc:Work></rdf:RDF></metadata><defs
   id="defs939" /><sodipodi:namedview
   pagecolor="#ffffff"
   bordercolor="#666666"
   borderopacity="1"
   objecttolerance="10"
   gridtolerance="10"
   guidetolerance="10"
   inkscape:pageopacity="0"
   inkscape:pageshadow="2"
   inkscape:window-width="4240"
   inkscape:window-height="2338"
   id="namedview937"
   showgrid="false"
   inkscape:zoom="47.604253"
   inkscape:cx="16.970032"
   inkscape:cy="15.466874"
   inkscape:window-x="144"
   inkscape:window-y="54"
   inkscape:window-maximized="1"
   inkscape:current-layer="Capa_1" />
<g
   id="g904"
   style="fill:#faffff;fill-opacity:1"
   transform="matrix(0.19335811,0,0,0.19335811,0,-0.01673844)">
	<circle
   cx="20.299999"
   cy="103.749"
   r="20"
   id="circle898"
   style="fill:#faffff;fill-opacity:1" />
	<path
   d="m 67,113.95 c 0,5.5 4.5,10 10,10 5.5,0 10,-4.5 10,-10 0,-42.4 -34.5,-77 -77,-77 -5.5,0 -10,4.5 -10,10 0,5.5 4.5,10 10,10 31.5,0 57,25.6 57,57 z"
   id="path900"
   style="fill:#faffff;fill-opacity:1"
   inkscape:connector-curvature="0" />
	<path
   d="m 114,123.95 c 5.5,0 10,-4.5 10,-10 C 124,51.15 72.9,0.05 10.1,0.05 c -5.5,0 -10,4.5 -10,10 0,5.5 4.5,10 10,10 51.8,0 93.9,42.1 93.9,93.9 0,5.5 4.4,10 10,10 z"
   id="path902"
   style="fill:#faffff;fill-opacity:1"
   inkscape:connector-curvature="0" />
</g>
<g
   id="g906"
   transform="translate(0,-100)">
</g>
<g
   id="g908"
   transform="translate(0,-100)">
</g>
<g
   id="g910"
   transform="translate(0,-100)">
</g>
<g
   id="g912"
   transform="translate(0,-100)">
</g>
<g
   id="g914"
   transform="translate(0,-100)">
</g>
<g
   id="g916"
   transform="translate(0,-100)">
</g>
<g
   id="g918"
   transform="translate(0,-100)">
</g>
<g
   id="g920"
   transform="translate(0,-100)">
</g>
<g
   id="g922"
   transform="translate(0,-100)">
</g>
<g
   id="g924"
   transform="translate(0,-100)">
</g>
<g
   id="g926"
   transform="translate(0,-100)">
</g>
<g
   id="g928"
   transform="translate(0,-100)">
</g>
<g
   id="g930"
   transform="translate(0,-100)">
</g>
<g
   id="g932"
   transform="translate(0,-100)">
</g>
<g
   id="g934"
   transform="translate(0,-100)">
</g>
</svg>